<svg xmlns="http://www.w3.org/2000/svg" viewBox="0 0 1057.34 3002.78"><defs><style>.\31 ae3559b-8ede-48bf-b16a-46a47f24ac55,.\39 12bb0e6-4de6-4b76-9550-f7d372f4f2b6,.a8eca1b7-f668-461e-949a-b3cbfced29c0,.cd1bc228-1572-4c17-b4f4-f31566e662dd{opacity:0.7;}.\34 447e52c-d49b-4a4b-8e0d-0aac7fe765ce,.\38 b687e4d-90ed-417e-b3a8-d8d63208af46,.a8eca1b7-f668-461e-949a-b3cbfced29c0{fill:#80bde3;}.\31 05c235e-6342-44bb-b29a-0c9c43750e37,.\34 447e52c-d49b-4a4b-8e0d-0aac7fe765ce{fill-rule:evenodd;}.\31 05c235e-6342-44bb-b29a-0c9c43750e37,.\31 ae3559b-8ede-48bf-b16a-46a47f24ac55,.\32 1d6512a-ae9a-4d65-b58f-07d5727a00a7,.\32 b7c63ed-7dc0-4d63-b861-efd3d822c03d,.cd1bc228-1572-4c17-b4f4-f31566e662dd{fill:none;stroke:#80bde3;stroke-miterlimit:10;}.\31 05c235e-6342-44bb-b29a-0c9c43750e37,.\32 1d6512a-ae9a-4d65-b58f-07d5727a00a7,.cd1bc228-1572-4c17-b4f4-f31566e662dd{stroke-width:3px;}.\31 ae3559b-8ede-48bf-b16a-46a47f24ac55{stroke-width:4px;}</style></defs><title>bg_top</title><g id="8e167dcb-a0ee-4f5c-a80d-2b1b83d898e7" data-name="Right"><g id="4ee0d78b-b678-4fc1-89c4-1c98e999d421" data-name="Simon Circle" class="912bb0e6-4de6-4b76-9550-f7d372f4f2b6"><path class="4447e52c-d49b-4a4b-8e0d-0aac7fe765ce" d="M999.28,154c.14.43,4.39-.43,4.39-.14-.71-5.53-4.11-10.06-10.77-10.91,0,0-.28,5-.14,4.82C996.73,147.63,998.86,150.88,999.28,154Z" transform="translate(5.75 3.6)"/><path class="4447e52c-d49b-4a4b-8e0d-0aac7fe765ce" d="M992.73,166.32c-.43.14.43,4.39.14,4.39,5.53-.71,10.06-4.11,10.91-10.77,0,0-5-.28-4.82-.14C999.11,163.77,995.85,165.9,992.73,166.32Z" transform="translate(5.75 3.6)"/><path class="4447e52c-d49b-4a4b-8e0d-0aac7fe765ce" d="M981.12,159.66c-.14-.43-4.39.43-4.39.14.71,5.53,4.11,10.06,10.77,10.91,0,0,.28-5,.14-4.82C983.67,166,981.55,162.78,981.12,159.66Z" transform="translate(5.75 3.6)"/><path class="4447e52c-d49b-4a4b-8e0d-0aac7fe765ce" d="M987.67,147.34c.43-.14-.43-4.39-.14-4.39-5.53.71-10.06,4.11-10.91,10.77,0,0,5,.28,4.82.14C981.3,149.89,984.56,147.77,987.67,147.34Z" transform="translate(5.75 3.6)"/><circle class="8b687e4d-90ed-417e-b3a8-d8d63208af46" cx="995.59" cy="161.52" r="6.43"/><circle class="21d6512a-ae9a-4d65-b58f-07d5727a00a7" cx="995.6" cy="160.45" r="18.51"/><circle class="2b7c63ed-7dc0-4d63-b861-efd3d822c03d" cx="1017.79" cy="137.9" r="6.62"/><circle class="8b687e4d-90ed-417e-b3a8-d8d63208af46" cx="1017.49" cy="137.85" r="3.38"/><line class="2b7c63ed-7dc0-4d63-b861-efd3d822c03d" x1="1017.49" y1="137.85" x2="1008.88" y2="146.54"/></g><g id="f4e06244-0e0c-4560-8dea-e0739983d3fa" data-name="Horizonal"><line class="cd1bc228-1572-4c17-b4f4-f31566e662dd" x1="919.5" y1="160.52" x2="975.38" y2="160.52"/><line class="cd1bc228-1572-4c17-b4f4-f31566e662dd" x1="919.5" y1="149.1" x2="919.5" y2="172.6"/><line class="cd1bc228-1572-4c17-b4f4-f31566e662dd" x1="904" y1="155.08" x2="904" y2="166.6"/><line class="cd1bc228-1572-4c17-b4f4-f31566e662dd" x1="860" y1="160.85" x2="904" y2="160.85"/><circle class="a8eca1b7-f668-461e-949a-b3cbfced29c0" cx="854.24" cy="160.84" r="5.76"/><line class="cd1bc228-1572-4c17-b4f4-f31566e662dd" x1="1015.13" y1="160.52" x2="1054.25" y2="160.52"/></g><g id="dfff4c7a-e7a2-4a5c-8128-8bacf37bae4d" data-name="Vertical"><path class="cd1bc228-1572-4c17-b4f4-f31566e662dd" d="M989.84,176.75V2946.67a6.81,6.81,0,0,0,3,6l57.82,45.33" transform="translate(5.75 3.6)"/><line class="cd1bc228-1572-4c17-b4f4-f31566e662dd" x1="984.5" y1="78.1" x2="994.13" y2="78.1"/><line class="cd1bc228-1572-4c17-b4f4-f31566e662dd" x1="977.08" y1="85.1" x2="982.37" y2="85.1"/><line class="cd1bc228-1572-4c17-b4f4-f31566e662dd" x1="977.03" y1="208.09" x2="982.32" y2="208.09"/><line class="cd1bc228-1572-4c17-b4f4-f31566e662dd" x1="977.03" y1="269.69" x2="982.32" y2="269.69"/><rect class="a8eca1b7-f668-461e-949a-b3cbfced29c0" x="975.15" y="279.4" width="7.17" height="4.2"/><line class="cd1bc228-1572-4c17-b4f4-f31566e662dd" x1="976.95" y1="365" x2="982.75" y2="365"/><line class="cd1bc228-1572-4c17-b4f4-f31566e662dd" x1="976.95" y1="400" x2="982.75" y2="400"/><line class="21d6512a-ae9a-4d65-b58f-07d5727a00a7" x1="977.08" y1="517.26" x2="982.08" y2="517.26"/><line class="21d6512a-ae9a-4d65-b58f-07d5727a00a7" x1="977.08" y1="640.26" x2="982.08" y2="640.26"/><line class="21d6512a-ae9a-4d65-b58f-07d5727a00a7" x1="977.08" y1="701.26" x2="982.08" y2="701.26"/><line class="21d6512a-ae9a-4d65-b58f-07d5727a00a7" x1="977.08" y1="796.6" x2="982.08" y2="796.6"/><line class="21d6512a-ae9a-4d65-b58f-07d5727a00a7" x1="977.08" y1="831.26" x2="982.08" y2="831.26"/><rect class="8b687e4d-90ed-417e-b3a8-d8d63208af46" x="975.42" y="711.26" width="7" height="4.67"/><line class="cd1bc228-1572-4c17-b4f4-f31566e662dd" x1="995.6" y1="140.72" x2="995.6" y2="3.6"/><line class="cd1bc228-1572-4c17-b4f4-f31566e662dd" x1="997" y1="78.1" x2="1006.63" y2="78.1"/><line class="cd1bc228-1572-4c17-b4f4-f31566e662dd" x1="984.53" y1="304.85" x2="994.16" y2="304.85"/><line class="cd1bc228-1572-4c17-b4f4-f31566e662dd" x1="997.03" y1="304.85" x2="1006.66" y2="304.85"/></g><g id="f6875c5f-b8c0-4dfe-b40d-a0d3277cc672" data-name="Header"><path class="cd1bc228-1572-4c17-b4f4-f31566e662dd" d="M674.75,56.5H780c8.75-2.5,61.17-59.08,61.17-59.08" transform="translate(5.75 3.6)"/><line class="cd1bc228-1572-4c17-b4f4-f31566e662dd" x1="675.25" y1="3.6" x2="675.25" y2="55.1"/><line class="cd1bc228-1572-4c17-b4f4-f31566e662dd" x1="577.5" y1="53.6" x2="577.5" y2="67.1"/><line class="cd1bc228-1572-4c17-b4f4-f31566e662dd" x1="567.5" y1="57.35" x2="567.5" y2="64.35"/><line class="cd1bc228-1572-4c17-b4f4-f31566e662dd" x1="651.5" y1="65.85" x2="651.5" y2="62.1"/><line class="cd1bc228-1572-4c17-b4f4-f31566e662dd" x1="659.25" y1="67.1" x2="659.25" y2="62.1"/><rect class="a8eca1b7-f668-461e-949a-b3cbfced29c0" x="713.75" y="60.85" width="6.25" height="6.25"/><circle class="a8eca1b7-f668-461e-949a-b3cbfced29c0" cx="675" cy="60.35" r="5.5"/><line class="cd1bc228-1572-4c17-b4f4-f31566e662dd" x1="669.5" y1="60.35" x2="578.42" y2="60.35"/></g><g id="8493d1df-9d8f-470d-bea7-816a2ab318b7" data-name="CH Logo" class="912bb0e6-4de6-4b76-9550-f7d372f4f2b6"><path class="105c235e-6342-44bb-b29a-0c9c43750e37" d="M898.25,35.7a45.8,45.8,0,1,1-45.8,45.8A45.8,45.8,0,0,1,898.25,35.7Z" transform="translate(5.75 3.6)"/><path class="105c235e-6342-44bb-b29a-0c9c43750e37" d="M893.61,68.93c0-.35.11-13.92.06-19.19,0-1.29-.29-2.24-2.58-2.24-33.47,7.48-39.95,56.49.3,68.08.77.22,2.29.85,2.29-.83V97.13C881.1,92.51,879.75,72.8,893.61,68.93Z" transform="translate(5.75 3.6)"/><line class="21d6512a-ae9a-4d65-b58f-07d5727a00a7" x1="889.48" y1="85.55" x2="869.39" y2="85.55"/><path class="21d6512a-ae9a-4d65-b58f-07d5727a00a7" d="M905.55,113.9s-.61-61.51-.61-63.54.52-2.14,1.66-2c7.94,1,15.25,6.17,20.15,13.35a19.24,19.24,0,0,1,.84,2.81l-.88,35.37a15.61,15.61,0,0,1-1.68,3.73c-5.65,5.85-7.84,8.07-17.46,11.39C906.9,115.2,905.41,115.59,905.55,113.9Z" transform="translate(5.75 3.6)"/><line class="21d6512a-ae9a-4d65-b58f-07d5727a00a7" x1="911.51" y1="86.46" x2="933.31" y2="86.67"/></g></g><g id="dd079791-cf45-4f79-bf73-2251156063a6" data-name="Left"><g id="ffba456b-1ef3-4dd4-a812-527c25a34b93" data-name="Simon Circle" class="912bb0e6-4de6-4b76-9550-f7d372f4f2b6"><path class="4447e52c-d49b-4a4b-8e0d-0aac7fe765ce" d="M70,47.51c.13.13-.13-4.52-.13-4.52-6.25.8-9.44,5.05-10.1,10.24,0-.27,4,.53,4.12.13C64.25,50.44,66.24,47.38,70,47.51Z" transform="translate(5.75 3.6)"/><path class="4447e52c-d49b-4a4b-8e0d-0aac7fe765ce" d="M64.14,58.8c.13-.13-4.52.13-4.52.13.8,6.25,5.05,9.44,10.24,10.1-.27,0,.53-4,.13-4.12C67.07,64.52,64,62.52,64.14,58.8Z" transform="translate(5.75 3.6)"/><path class="4447e52c-d49b-4a4b-8e0d-0aac7fe765ce" d="M74.76,64.52c-.13-.13.13,4.52.13,4.52C81.15,68.24,84.34,64,85,58.8c0,.27-4-.53-4.12-.13C80.48,61.59,78.49,64.65,74.76,64.52Z" transform="translate(5.75 3.6)"/><path class="4447e52c-d49b-4a4b-8e0d-0aac7fe765ce" d="M80.59,53.23c-.13.13,4.52-.13,4.52-.13-.8-6.25-5.05-9.44-10.24-10.1.27,0-.53,4-.13,4.12C77.66,47.51,80.72,49.5,80.59,53.23Z" transform="translate(5.75 3.6)"/><circle class="8b687e4d-90ed-417e-b3a8-d8d63208af46" cx="78.45" cy="60.63" r="6.03"/><circle class="21d6512a-ae9a-4d65-b58f-07d5727a00a7" cx="78.45" cy="59.63" r="17.36"/><circle class="2b7c63ed-7dc0-4d63-b861-efd3d822c03d" cx="57.63" cy="38.48" r="6.21"/><circle class="8b687e4d-90ed-417e-b3a8-d8d63208af46" cx="57.92" cy="38.43" r="3.17"/><line class="2b7c63ed-7dc0-4d63-b861-efd3d822c03d" x1="57.92" y1="38.43" x2="65.99" y2="46.59"/></g><g id="caefe5e9-dbe2-4d85-8d98-bb072d96cc47" data-name="Header Bar"><line class="cd1bc228-1572-4c17-b4f4-f31566e662dd" x1="466.25" y1="59.63" x2="97.45" y2="59.63"/><line class="cd1bc228-1572-4c17-b4f4-f31566e662dd" x1="118.75" y1="54.6" x2="118.75" y2="67.5"/><line class="cd1bc228-1572-4c17-b4f4-f31566e662dd" x1="467.25" y1="54.6" x2="467.25" y2="66.67"/><line class="a8eca1b7-f668-461e-949a-b3cbfced29c0" x1="480.75" y1="56.86" x2="480.75" y2="62.36"/><rect class="a8eca1b7-f668-461e-949a-b3cbfced29c0" x="184.75" y="59.61" width="7.06" height="7.06"/><line class="cd1bc228-1572-4c17-b4f4-f31566e662dd" x1="263.25" y1="66.67" x2="263.25" y2="60.61"/><line class="cd1bc228-1572-4c17-b4f4-f31566e662dd" x1="480.75" y1="55.86" x2="480.75" y2="65.67"/><line class="cd1bc228-1572-4c17-b4f4-f31566e662dd" x1="248.25" y1="60.63" x2="248.25" y2="66.67"/><line class="cd1bc228-1572-4c17-b4f4-f31566e662dd" x1="78.45" y1="40.85" x2="78.45" y2="3.6"/></g><g id="7325c9c9-5416-4a35-87ba-d09cadac249e" data-name="Layer 5"><path class="cd1bc228-1572-4c17-b4f4-f31566e662dd" d="M72.7,75V217L24.5,272.5S24,2375,24.5,2379a6.31,6.31,0,0,1-3,6l-26.26,23" transform="translate(5.75 3.6)"/><line class="cd1bc228-1572-4c17-b4f4-f31566e662dd" x1="41.25" y1="3.6" x2="41.25" y2="262.82"/><line class="cd1bc228-1572-4c17-b4f4-f31566e662dd" x1="41.25" y1="179.6" x2="78.45" y2="179.6"/><line class="cd1bc228-1572-4c17-b4f4-f31566e662dd" x1="42.25" y1="59.63" x2="5.75" y2="59.63"/><line class="cd1bc228-1572-4c17-b4f4-f31566e662dd" x1="39.75" y1="10.1" x2="37.25" y2="10.1"/><line class="cd1bc228-1572-4c17-b4f4-f31566e662dd" x1="87.95" y1="169.26" x2="79.45" y2="169.26"/><line class="cd1bc228-1572-4c17-b4f4-f31566e662dd" x1="87.95" y1="202.02" x2="79.45" y2="202.02"/><line class="cd1bc228-1572-4c17-b4f4-f31566e662dd" x1="87.95" y1="19.81" x2="79.45" y2="19.81"/><line class="cd1bc228-1572-4c17-b4f4-f31566e662dd" x1="87.95" y1="11.1" x2="79.45" y2="11.1"/><line class="1ae3559b-8ede-48bf-b16a-46a47f24ac55" x1="87.95" y1="269.71" x2="78.45" y2="269.71"/><line class="1ae3559b-8ede-48bf-b16a-46a47f24ac55" x1="87.95" y1="286.38" x2="78.45" y2="286.38"/><line class="1ae3559b-8ede-48bf-b16a-46a47f24ac55" x1="87.95" y1="320.46" x2="78.45" y2="320.46"/><line class="1ae3559b-8ede-48bf-b16a-46a47f24ac55" x1="87.95" y1="398.61" x2="78.45" y2="398.61"/><line class="cd1bc228-1572-4c17-b4f4-f31566e662dd" x1="42.75" y1="10.1" x2="46.75" y2="10.1"/><line class="cd1bc228-1572-4c17-b4f4-f31566e662dd" x1="40" y1="55.6" x2="37.5" y2="55.6"/><line class="cd1bc228-1572-4c17-b4f4-f31566e662dd" x1="43" y1="55.6" x2="47" y2="55.6"/><line class="cd1bc228-1572-4c17-b4f4-f31566e662dd" x1="39.75" y1="105.93" x2="37.25" y2="105.93"/><line class="cd1bc228-1572-4c17-b4f4-f31566e662dd" x1="42.75" y1="105.93" x2="46.75" y2="105.93"/><line class="cd1bc228-1572-4c17-b4f4-f31566e662dd" x1="40" y1="205.6" x2="37.5" y2="205.6"/><line class="cd1bc228-1572-4c17-b4f4-f31566e662dd" x1="43" y1="205.6" x2="47" y2="205.6"/></g></g></svg>