<svg xmlns="http://www.w3.org/2000/svg" viewBox="0 0 1048.5 3003.6"><defs><style>.\32 6220b14-454a-46d0-8009-6379c266d5c3,.\34 090b12b-495a-4d5a-aee8-66fc3428affd,.\35 d23f612-1b7d-4192-98e3-39684823a8b6,.ee787e37-454a-4a43-a9c2-fe513177d96b{opacity:0.7;}.adbe7b2c-6bd8-4659-8fbe-7dc9d2976121,.d60c6cf2-815f-42d7-be7b-390630ebf35e,.ee787e37-454a-4a43-a9c2-fe513177d96b{fill:#80bde3;}.\31 0a5770a-6d9b-4c3c-832c-e0d257268465,.adbe7b2c-6bd8-4659-8fbe-7dc9d2976121{fill-rule:evenodd;}.\31 0a5770a-6d9b-4c3c-832c-e0d257268465,.\32 6220b14-454a-46d0-8009-6379c266d5c3,.\34 090b12b-495a-4d5a-aee8-66fc3428affd,.\34 8c5cb69-0176-4c48-87ac-d0ff52ef9164,.f0f43e33-71d3-4238-baee-3f4fa1c43b7b{fill:none;stroke:#80bde3;stroke-miterlimit:10;}.\31 0a5770a-6d9b-4c3c-832c-e0d257268465,.\34 090b12b-495a-4d5a-aee8-66fc3428affd,.f0f43e33-71d3-4238-baee-3f4fa1c43b7b{stroke-width:3px;}.\32 6220b14-454a-46d0-8009-6379c266d5c3{stroke-width:4px;}</style></defs><title>bg_top</title><g id="66da5c16-8fd0-4055-b050-efc82142af56" data-name="Right"><g id="c1dbfe61-58cc-4a54-8e74-5df33f97233f" data-name="Simon Circle" class="5d23f612-1b7d-4192-98e3-39684823a8b6"><path class="adbe7b2c-6bd8-4659-8fbe-7dc9d2976121" d="M999.28,154c.14.43,4.39-.43,4.39-.14-.71-5.53-4.11-10.06-10.77-10.91,0,0-.28,5-.14,4.82C996.73,147.63,998.86,150.88,999.28,154Z" transform="translate(0 3.6)"/><path class="adbe7b2c-6bd8-4659-8fbe-7dc9d2976121" d="M992.73,166.32c-.43.14.43,4.39.14,4.39,5.53-.71,10.06-4.11,10.91-10.77,0,0-5-.28-4.82-.14C999.11,163.77,995.85,165.9,992.73,166.32Z" transform="translate(0 3.6)"/><path class="adbe7b2c-6bd8-4659-8fbe-7dc9d2976121" d="M981.12,159.66c-.14-.43-4.39.43-4.39.14.71,5.53,4.11,10.06,10.77,10.91,0,0,.28-5,.14-4.82C983.67,166,981.55,162.78,981.12,159.66Z" transform="translate(0 3.6)"/><path class="adbe7b2c-6bd8-4659-8fbe-7dc9d2976121" d="M987.67,147.34c.43-.14-.43-4.39-.14-4.39-5.53.71-10.06,4.11-10.91,10.77,0,0,5,.28,4.82.14C981.3,149.89,984.56,147.77,987.67,147.34Z" transform="translate(0 3.6)"/><circle class="d60c6cf2-815f-42d7-be7b-390630ebf35e" cx="989.84" cy="161.52" r="6.43"/><circle class="f0f43e33-71d3-4238-baee-3f4fa1c43b7b" cx="989.85" cy="160.45" r="18.51"/><circle class="48c5cb69-0176-4c48-87ac-d0ff52ef9164" cx="1012.04" cy="137.9" r="6.62"/><circle class="d60c6cf2-815f-42d7-be7b-390630ebf35e" cx="1011.74" cy="137.85" r="3.38"/><line class="48c5cb69-0176-4c48-87ac-d0ff52ef9164" x1="1011.74" y1="137.85" x2="1003.13" y2="146.54"/></g><g id="98e38fe6-2624-4aa4-b6fb-503d017a3073" data-name="Horizonal"><line class="4090b12b-495a-4d5a-aee8-66fc3428affd" x1="913.75" y1="160.52" x2="969.63" y2="160.52"/><line class="4090b12b-495a-4d5a-aee8-66fc3428affd" x1="913.75" y1="149.1" x2="913.75" y2="172.6"/><line class="4090b12b-495a-4d5a-aee8-66fc3428affd" x1="898.25" y1="155.08" x2="898.25" y2="166.6"/><line class="4090b12b-495a-4d5a-aee8-66fc3428affd" x1="854.25" y1="160.85" x2="898.25" y2="160.85"/><circle class="ee787e37-454a-4a43-a9c2-fe513177d96b" cx="848.49" cy="160.84" r="5.76"/><line class="4090b12b-495a-4d5a-aee8-66fc3428affd" x1="1009.38" y1="160.52" x2="1048.5" y2="160.52"/></g><g id="37511826-43d3-4a58-9aa0-daa6ab2fa7d3" data-name="Vertical"><line class="4090b12b-495a-4d5a-aee8-66fc3428affd" x1="989.84" y1="180.35" x2="989.84" y2="3003.6"/><line class="4090b12b-495a-4d5a-aee8-66fc3428affd" x1="978.75" y1="78.1" x2="988.38" y2="78.1"/><line class="4090b12b-495a-4d5a-aee8-66fc3428affd" x1="971.33" y1="85.1" x2="976.62" y2="85.1"/><line class="4090b12b-495a-4d5a-aee8-66fc3428affd" x1="971.28" y1="208.09" x2="976.57" y2="208.09"/><line class="4090b12b-495a-4d5a-aee8-66fc3428affd" x1="971.28" y1="269.69" x2="976.57" y2="269.69"/><rect class="ee787e37-454a-4a43-a9c2-fe513177d96b" x="969.4" y="279.4" width="7.17" height="4.2"/><line class="4090b12b-495a-4d5a-aee8-66fc3428affd" x1="971.2" y1="365" x2="977" y2="365"/><line class="4090b12b-495a-4d5a-aee8-66fc3428affd" x1="971.2" y1="400" x2="977" y2="400"/><line class="f0f43e33-71d3-4238-baee-3f4fa1c43b7b" x1="971.33" y1="517.26" x2="976.33" y2="517.26"/><line class="f0f43e33-71d3-4238-baee-3f4fa1c43b7b" x1="971.33" y1="640.26" x2="976.33" y2="640.26"/><line class="f0f43e33-71d3-4238-baee-3f4fa1c43b7b" x1="971.33" y1="701.26" x2="976.33" y2="701.26"/><line class="f0f43e33-71d3-4238-baee-3f4fa1c43b7b" x1="971.33" y1="796.6" x2="976.33" y2="796.6"/><line class="f0f43e33-71d3-4238-baee-3f4fa1c43b7b" x1="971.33" y1="831.26" x2="976.33" y2="831.26"/><rect class="d60c6cf2-815f-42d7-be7b-390630ebf35e" x="969.67" y="711.26" width="7" height="4.67"/><line class="4090b12b-495a-4d5a-aee8-66fc3428affd" x1="989.85" y1="140.72" x2="989.85" y2="3.6"/><line class="4090b12b-495a-4d5a-aee8-66fc3428affd" x1="991.25" y1="78.1" x2="1000.88" y2="78.1"/><line class="4090b12b-495a-4d5a-aee8-66fc3428affd" x1="978.78" y1="304.85" x2="988.41" y2="304.85"/><line class="4090b12b-495a-4d5a-aee8-66fc3428affd" x1="991.28" y1="304.85" x2="1000.91" y2="304.85"/></g><g id="0809c958-ae80-459f-9a0e-6c5b4c3a71b8" data-name="Header"><path class="4090b12b-495a-4d5a-aee8-66fc3428affd" d="M674.75,56.5H780c8.75-2.5,61.17-59.08,61.17-59.08" transform="translate(0 3.6)"/><line class="4090b12b-495a-4d5a-aee8-66fc3428affd" x1="669.5" y1="3.6" x2="669.5" y2="55.1"/><line class="4090b12b-495a-4d5a-aee8-66fc3428affd" x1="571.75" y1="53.6" x2="571.75" y2="67.1"/><line class="4090b12b-495a-4d5a-aee8-66fc3428affd" x1="561.75" y1="57.35" x2="561.75" y2="64.35"/><line class="4090b12b-495a-4d5a-aee8-66fc3428affd" x1="645.75" y1="65.85" x2="645.75" y2="62.1"/><line class="4090b12b-495a-4d5a-aee8-66fc3428affd" x1="653.5" y1="67.1" x2="653.5" y2="62.1"/><rect class="ee787e37-454a-4a43-a9c2-fe513177d96b" x="708" y="60.85" width="6.25" height="6.25"/><circle class="ee787e37-454a-4a43-a9c2-fe513177d96b" cx="669.25" cy="60.35" r="5.5"/><line class="4090b12b-495a-4d5a-aee8-66fc3428affd" x1="663.75" y1="60.35" x2="572.67" y2="60.35"/></g><g id="b2b95a6b-85b2-4a89-a0fc-3d1ef646e112" data-name="CH Logo" class="5d23f612-1b7d-4192-98e3-39684823a8b6"><path class="10a5770a-6d9b-4c3c-832c-e0d257268465" d="M898.25,35.7a45.8,45.8,0,1,1-45.8,45.8A45.8,45.8,0,0,1,898.25,35.7Z" transform="translate(0 3.6)"/><path class="10a5770a-6d9b-4c3c-832c-e0d257268465" d="M893.61,68.93c0-.35.11-13.92.06-19.19,0-1.29-.29-2.24-2.58-2.24-33.47,7.48-39.95,56.49.3,68.08.77.22,2.29.85,2.29-.83V97.13C881.1,92.51,879.75,72.8,893.61,68.93Z" transform="translate(0 3.6)"/><line class="f0f43e33-71d3-4238-baee-3f4fa1c43b7b" x1="883.73" y1="85.55" x2="863.64" y2="85.55"/><path class="f0f43e33-71d3-4238-baee-3f4fa1c43b7b" d="M905.55,113.9s-.61-61.51-.61-63.54.52-2.14,1.66-2c7.94,1,15.25,6.17,20.15,13.35a19.24,19.24,0,0,1,.84,2.81l-.88,35.37a15.61,15.61,0,0,1-1.68,3.73c-5.65,5.85-7.84,8.07-17.46,11.39C906.9,115.2,905.41,115.59,905.55,113.9Z" transform="translate(0 3.6)"/><line class="f0f43e33-71d3-4238-baee-3f4fa1c43b7b" x1="905.76" y1="86.46" x2="927.56" y2="86.67"/></g></g><g id="89764b79-1b42-485d-b352-94512c2e35b8" data-name="Left"><g id="f6c9110a-0695-4205-b658-d90a45c042ae" data-name="Simon Circle" class="5d23f612-1b7d-4192-98e3-39684823a8b6"><path class="adbe7b2c-6bd8-4659-8fbe-7dc9d2976121" d="M70,47.51c.13.13-.13-4.52-.13-4.52-6.25.8-9.44,5.05-10.1,10.24,0-.27,4,.53,4.12.13C64.25,50.44,66.24,47.38,70,47.51Z" transform="translate(0 3.6)"/><path class="adbe7b2c-6bd8-4659-8fbe-7dc9d2976121" d="M64.14,58.8c.13-.13-4.52.13-4.52.13.8,6.25,5.05,9.44,10.24,10.1-.27,0,.53-4,.13-4.12C67.07,64.52,64,62.52,64.14,58.8Z" transform="translate(0 3.6)"/><path class="adbe7b2c-6bd8-4659-8fbe-7dc9d2976121" d="M74.76,64.52c-.13-.13.13,4.52.13,4.52C81.15,68.24,84.34,64,85,58.8c0,.27-4-.53-4.12-.13C80.48,61.59,78.49,64.65,74.76,64.52Z" transform="translate(0 3.6)"/><path class="adbe7b2c-6bd8-4659-8fbe-7dc9d2976121" d="M80.59,53.23c-.13.13,4.52-.13,4.52-.13-.8-6.25-5.05-9.44-10.24-10.1.27,0-.53,4-.13,4.12C77.66,47.51,80.72,49.5,80.59,53.23Z" transform="translate(0 3.6)"/><circle class="d60c6cf2-815f-42d7-be7b-390630ebf35e" cx="72.7" cy="60.63" r="6.03"/><circle class="f0f43e33-71d3-4238-baee-3f4fa1c43b7b" cx="72.7" cy="59.63" r="17.36"/><circle class="48c5cb69-0176-4c48-87ac-d0ff52ef9164" cx="51.88" cy="38.48" r="6.21"/><circle class="d60c6cf2-815f-42d7-be7b-390630ebf35e" cx="52.17" cy="38.43" r="3.17"/><line class="48c5cb69-0176-4c48-87ac-d0ff52ef9164" x1="52.17" y1="38.43" x2="60.24" y2="46.59"/></g><g id="b921eaae-ea49-4f64-8a22-5bfdce829a36" data-name="Header Bar"><line class="4090b12b-495a-4d5a-aee8-66fc3428affd" x1="460.5" y1="59.63" x2="91.7" y2="59.63"/><line class="4090b12b-495a-4d5a-aee8-66fc3428affd" x1="113" y1="54.6" x2="113" y2="67.5"/><line class="4090b12b-495a-4d5a-aee8-66fc3428affd" x1="461.5" y1="54.6" x2="461.5" y2="66.67"/><line class="ee787e37-454a-4a43-a9c2-fe513177d96b" x1="475" y1="56.86" x2="475" y2="62.36"/><rect class="ee787e37-454a-4a43-a9c2-fe513177d96b" x="179" y="59.61" width="7.06" height="7.06"/><line class="4090b12b-495a-4d5a-aee8-66fc3428affd" x1="257.5" y1="66.67" x2="257.5" y2="60.61"/><line class="4090b12b-495a-4d5a-aee8-66fc3428affd" x1="475" y1="55.86" x2="475" y2="65.67"/><line class="4090b12b-495a-4d5a-aee8-66fc3428affd" x1="242.5" y1="60.63" x2="242.5" y2="66.67"/><line class="4090b12b-495a-4d5a-aee8-66fc3428affd" x1="72.7" y1="40.85" x2="72.7" y2="3.6"/></g><g id="2bac5549-c7fa-435b-8c5d-c3d207a58be8" data-name="Layer 5"><polyline class="4090b12b-495a-4d5a-aee8-66fc3428affd" points="72.7 78.6 72.7 220.6 24.5 276.1 24.5 3003.6"/><line class="4090b12b-495a-4d5a-aee8-66fc3428affd" x1="35.5" y1="3.6" x2="35.5" y2="262.82"/><line class="4090b12b-495a-4d5a-aee8-66fc3428affd" x1="35.5" y1="179.6" x2="72.7" y2="179.6"/><line class="4090b12b-495a-4d5a-aee8-66fc3428affd" x1="36.5" y1="59.63" y2="59.63"/><line class="4090b12b-495a-4d5a-aee8-66fc3428affd" x1="34" y1="10.1" x2="31.5" y2="10.1"/><line class="4090b12b-495a-4d5a-aee8-66fc3428affd" x1="82.2" y1="169.26" x2="73.7" y2="169.26"/><line class="4090b12b-495a-4d5a-aee8-66fc3428affd" x1="82.2" y1="202.02" x2="73.7" y2="202.02"/><line class="4090b12b-495a-4d5a-aee8-66fc3428affd" x1="82.2" y1="19.81" x2="73.7" y2="19.81"/><line class="4090b12b-495a-4d5a-aee8-66fc3428affd" x1="82.2" y1="11.1" x2="73.7" y2="11.1"/><line class="26220b14-454a-46d0-8009-6379c266d5c3" x1="82.2" y1="269.71" x2="72.7" y2="269.71"/><line class="26220b14-454a-46d0-8009-6379c266d5c3" x1="82.2" y1="286.38" x2="72.7" y2="286.38"/><line class="26220b14-454a-46d0-8009-6379c266d5c3" x1="82.2" y1="320.46" x2="72.7" y2="320.46"/><line class="26220b14-454a-46d0-8009-6379c266d5c3" x1="82.2" y1="398.61" x2="72.7" y2="398.61"/><line class="4090b12b-495a-4d5a-aee8-66fc3428affd" x1="37" y1="10.1" x2="41" y2="10.1"/><line class="4090b12b-495a-4d5a-aee8-66fc3428affd" x1="34.25" y1="55.6" x2="31.75" y2="55.6"/><line class="4090b12b-495a-4d5a-aee8-66fc3428affd" x1="37.25" y1="55.6" x2="41.25" y2="55.6"/><line class="4090b12b-495a-4d5a-aee8-66fc3428affd" x1="34" y1="105.93" x2="31.5" y2="105.93"/><line class="4090b12b-495a-4d5a-aee8-66fc3428affd" x1="37" y1="105.93" x2="41" y2="105.93"/><line class="4090b12b-495a-4d5a-aee8-66fc3428affd" x1="34.25" y1="205.6" x2="31.75" y2="205.6"/><line class="4090b12b-495a-4d5a-aee8-66fc3428affd" x1="37.25" y1="205.6" x2="41.25" y2="205.6"/></g></g></svg>