<svg id="59d9fdac-4b00-4295-ab35-2fb7691c942e" data-name="CH Logo" xmlns="http://www.w3.org/2000/svg" viewBox="0 0 115.2 115.2">

<defs><style>.\30 a507a4f-8868-41e6-a9fa-f7d5e90d6511,.a8d99b72-e3a5-48ff-9139-924eaaa105e7{fill:none;stroke:#80bde3;stroke-miterlimit:10;stroke-width:6px;}.\30 a507a4f-8868-41e6-a9fa-f7d5e90d6511{fill-rule:evenodd;}</style></defs>

<title>logo</title>

<path class="0a507a4f-8868-41e6-a9fa-f7d5e90d6511" d="M306.3,341a54.6,54.6,0,1,1-54.6,54.6A54.6,54.6,0,0,1,306.3,341Z" transform="translate(-248.7 -338.02)"/>

<path class="0a507a4f-8868-41e6-a9fa-f7d5e90d6511" d="M300.77,380.63c0-.41.13-16.59.07-22.88,0-1.54-.34-2.67-3.08-2.67-39.91,8.92-47.62,67.35.36,81.16.92.26,2.73,1,2.73-1v-21C285.85,408.75,284.25,385.25,300.77,380.63Z" transform="translate(-248.7 -338.02)"/>

<line class="a8d99b72-e3a5-48ff-9139-924eaaa105e7" x1="40.29" y1="58.14" x2="16.33" y2="58.14"/>

<path class="a8d99b72-e3a5-48ff-9139-924eaaa105e7" d="M315,434.25s-.73-73.33-.73-75.75.61-2.56,2-2.42c9.46,1.21,18.18,7.35,24,15.91a22.93,22.93,0,0,1,1,3.34l-1.05,42.17a18.61,18.61,0,0,1-2,4.45c-6.73,7-9.35,9.63-20.81,13.58C316.62,435.79,314.83,436.26,315,434.25Z" transform="translate(-248.7 -338.02)"/>

<line class="a8d99b72-e3a5-48ff-9139-924eaaa105e7" x1="66.55" y1="59.23" x2="92.54" y2="59.48"/>

</svg>