<svg id="f8bdb411-daa0-4456-8463-0e6dcc874730" data-name="CH Logo" xmlns="http://www.w3.org/2000/svg" xmlns:xlink="http://www.w3.org/1999/xlink" viewBox="0 0 115.2 115.2"><defs><style>.\31 f3dccf4-05a1-4adf-81ba-9e2283e3f877,.\38 b67c346-cff7-439e-a659-ae1d8906b717,.f2163ab3-659a-4b3b-9533-2cdaa2b2ea36{fill:none;stroke-miterlimit:10;stroke-width:6px;}.\38 b67c346-cff7-439e-a659-ae1d8906b717,.f2163ab3-659a-4b3b-9533-2cdaa2b2ea36{fill-rule:evenodd;}.f2163ab3-659a-4b3b-9533-2cdaa2b2ea36{stroke:url(#b6d5b939-718a-4495-9c3b-96225550d7e5);}.\31 f3dccf4-05a1-4adf-81ba-9e2283e3f877,.\38 b67c346-cff7-439e-a659-ae1d8906b717{stroke:#80bde3;}</style><linearGradient id="b6d5b939-718a-4495-9c3b-96225550d7e5" x1="57.6" y1="115.2" x2="57.6" gradientUnits="userSpaceOnUse"><stop offset="0" stop-color="#27aae1"/><stop offset="0.26" stop-color="#9cccee" stop-opacity="0"/><stop offset="0.5" stop-color="#27aae1"/><stop offset="0.74" stop-color="#27aae1" stop-opacity="0"/><stop offset="1" stop-color="#27aae1"/></linearGradient></defs><title>logo_gradient</title><path class="f2163ab3-659a-4b3b-9533-2cdaa2b2ea36" d="M57.6,3A54.6,54.6,0,1,1,3,57.6,54.6,54.6,0,0,1,57.6,3Z"/><path class="8b67c346-cff7-439e-a659-ae1d8906b717" d="M52.07,42.61c0-.41.13-16.59.07-22.88,0-1.54-.34-2.67-3.08-2.67C9.16,26,1.44,84.41,49.43,98.22c.92.26,2.73,1,2.73-1v-21C37.15,70.73,35.55,47.23,52.07,42.61Z"/><line class="1f3dccf4-05a1-4adf-81ba-9e2283e3f877" x1="40.29" y1="58.14" x2="16.33" y2="58.14"/><path class="1f3dccf4-05a1-4adf-81ba-9e2283e3f877" d="M66.3,96.23s-.73-73.33-.73-75.75.61-2.56,2-2.42C77,19.27,85.73,25.41,91.57,34a22.93,22.93,0,0,1,1,3.34L91.51,79.48a18.61,18.61,0,0,1-2,4.45c-6.73,7-9.35,9.63-20.81,13.58C67.92,97.77,66.13,98.24,66.3,96.23Z"/><line class="1f3dccf4-05a1-4adf-81ba-9e2283e3f877" x1="66.55" y1="59.23" x2="92.54" y2="59.48"/></svg>