<svg id="d13642e8-6d1e-49a2-892a-fe09d7e86480" data-name="Layer 1" xmlns="http://www.w3.org/2000/svg" viewBox="0 0 299.39 120.69"><defs><style>.ea3c0bcc-6be7-4a80-a762-c0acb92ded86{fill:#246db6;}.f227736a-f6ba-496b-b08d-9ec45b2f3dc2{fill:#7fbde4;}</style></defs><title>acme</title><g id="c344bf1c-c6b0-4570-9545-a399be5e7492" data-name="CRT Blue"><g id="285f5600-da64-468c-b85b-1f18a39535f4" data-name="Shadow"><path id="1ed69ad4-189d-4681-8447-bf63d69c9c1e" data-name="E" class="ea3c0bcc-6be7-4a80-a762-c0acb92ded86" d="M305.17,37.67,305.5,25l-48-2.33-4,65.67,48.67,3,.33-12.67-24.67-1.33L278.17,63l17.67.33.67-11.67L279.17,51l.67-14.67Z" transform="translate(-6.11 -7.06)"/><path id="24b64c14-7a3f-45a5-94fe-7f3aecbe987e" data-name="M" class="ea3c0bcc-6be7-4a80-a762-c0acb92ded86" d="M159.83,75.39l22.67,2.33,4.67-40.67,11.67,18.67,15-15.33L209.5,80.06l22.33,2.67,8.33-64.67L216.5,15.39l-14.67,15-11.33-18-23.33-2.33Z" transform="translate(-6.11 -7.06)"/><path id="d2785525-e937-4fa3-9010-7f41d01005eb" data-name="C" class="ea3c0bcc-6be7-4a80-a762-c0acb92ded86" d="M150.78,84,140.45,62.36s-21.33,6.67-22.33-7c1-12,22.33-6.67,22.33-6.67s9.67-21.67,9-22c-19-8.33-53.88-7.61-55,29.33C96.78,97.7,136.11,93.7,150.78,84Z" transform="translate(-6.11 -7.06)"/><g id="5d55b70b-0e36-443d-9bae-7ab87fbd1ba8" data-name="A"><path class="ea3c0bcc-6be7-4a80-a762-c0acb92ded86" d="M68.11,15.56l-37,1-18,66.67H35.44l3.33-13,25.33-1,4,12,22.33-.67Zm-26,43,7.67-28.67,10,28Z" transform="translate(-6.11 -7.06)"/></g></g><g id="c62c5293-458e-4c96-9058-2a9340be6166" data-name="ACME"><path id="f1088404-03bb-416d-a30b-90a0cb01843e" data-name="E" class="f227736a-f6ba-496b-b08d-9ec45b2f3dc2" d="M298.17,34.67,298.5,22l-48-2.33-4,65.67,48.67,3,.33-12.67-24.67-1.33L271.17,60l17.67.33.67-11.67L272.17,48l.67-14.67Z" transform="translate(-6.11 -7.06)"/><path id="0b9c6614-95d1-48db-b9bb-cec4f6df7f78" data-name="M" class="f227736a-f6ba-496b-b08d-9ec45b2f3dc2" d="M152.83,72.39l22.67,2.33,4.67-40.67,11.67,18.67,15-15.33L202.5,77.06l22.33,2.67,8.33-64.67L209.5,12.39l-14.67,15-11.33-18L160.17,7.06Z" transform="translate(-6.11 -7.06)"/><path id="238d287e-5df6-41da-ae59-838c7cc88ac9" data-name="C" class="f227736a-f6ba-496b-b08d-9ec45b2f3dc2" d="M143.78,81,133.45,59.36s-21.33,6.67-22.33-7c1-12,22.33-6.67,22.33-6.67s9.67-21.67,9-22c-19-8.33-53.88-7.61-55,29.33C89.78,94.7,129.11,90.7,143.78,81Z" transform="translate(-6.11 -7.06)"/><g id="8c69e134-9013-4dea-8ba0-1f367946a1e2" data-name="A"><path class="f227736a-f6ba-496b-b08d-9ec45b2f3dc2" d="M61.11,12.56l-37,1-18,66.67H28.44l3.33-13,25.33-1,4,12,22.33-.67Zm-26,43,7.67-28.67,10,28Z" transform="translate(-6.11 -7.06)"/><path class="f227736a-f6ba-496b-b08d-9ec45b2f3dc2" d="M61.11,12.56l-37,1-18,66.67H28.44l3.33-13,25.33-1,4,12,22.33-.67Zm-26,43,7.67-28.67,10,28Z" transform="translate(-6.11 -7.06)"/></g></g><g id="e8d11612-fc99-4dd9-bced-26e7e2e50c0e" data-name="Corp copy"><path class="f227736a-f6ba-496b-b08d-9ec45b2f3dc2" d="M20.83,127.74a13.78,13.78,0,0,1-8-2.14,13,13,0,0,1,7.78-23.7,23.39,23.39,0,0,1,11.25,3l-4.52,8.7a12.82,12.82,0,0,0-4.49-.88c-2.28,0-3.5.75-3.5,1.87s1.22,1.9,3.5,1.9a13.21,13.21,0,0,0,4.49-.92l4.52,9.38A22.28,22.28,0,0,1,20.83,127.74Z" transform="translate(-6.11 -7.06)"/><path class="f227736a-f6ba-496b-b08d-9ec45b2f3dc2" d="M36.81,105.68a13.34,13.34,0,0,1,18.6,0,12.77,12.77,0,0,1,0,18.26,13.26,13.26,0,0,1-18.6,0,12.6,12.6,0,0,1-3.87-9.11A12.82,12.82,0,0,1,36.81,105.68Zm9.28,11.66a2.52,2.52,0,1,0-2.52-2.52A2.49,2.49,0,0,0,46.09,117.34Z" transform="translate(-6.11 -7.06)"/><path class="f227736a-f6ba-496b-b08d-9ec45b2f3dc2" d="M62.18,127.33v-25H77.92c3.47,0,5.92.31,7.89,2.21A7,7,0,0,1,85,115.2a22.42,22.42,0,0,1,4.49,12.14H77.81c0-6.05-1.5-9.32-4.45-9.65v9.65H62.18Zm11.18-15.47h.34c2.07,0,3.13-.85,3.13-2.38s-1.09-2.31-3.13-2.31h-.34Z" transform="translate(-6.11 -7.06)"/><path class="f227736a-f6ba-496b-b08d-9ec45b2f3dc2" d="M92.57,127.33v-25h13.7c3.54,0,6.22.24,8.46,2a7.66,7.66,0,0,1,3,6.29,8.16,8.16,0,0,1-8.47,8.53,8.29,8.29,0,0,1-5.51-2v10.2Zm11.19-14.52h.37c2.24,0,3.4-.92,3.4-2.58s-1.16-2.52-3.33-2.52h-.44Z" transform="translate(-6.11 -7.06)"/><path class="f227736a-f6ba-496b-b08d-9ec45b2f3dc2" d="M123.27,105.68a13.34,13.34,0,0,1,18.6,0,12.77,12.77,0,0,1,0,18.26,13.26,13.26,0,0,1-18.6,0,12.6,12.6,0,0,1-3.87-9.11A12.82,12.82,0,0,1,123.27,105.68Zm9.28,11.66a2.52,2.52,0,1,0-2.52-2.52A2.49,2.49,0,0,0,132.55,117.34Z" transform="translate(-6.11 -7.06)"/><path class="f227736a-f6ba-496b-b08d-9ec45b2f3dc2" d="M148.64,127.33v-25h15.74c3.47,0,5.91.31,7.89,2.21a7,7,0,0,1-.85,10.67,22.41,22.41,0,0,1,4.49,12.14H164.27c0-6.05-1.5-9.32-4.45-9.65v9.65H148.64Zm11.19-15.47h.34c2.07,0,3.13-.85,3.13-2.38s-1.09-2.31-3.13-2.31h-.34Z" transform="translate(-6.11 -7.06)"/><path class="f227736a-f6ba-496b-b08d-9ec45b2f3dc2" d="M184.77,102.31h15.06l9.25,25H197.69L196.3,123h-7.92L187,127.33H175.76Zm9.52,14.86-1.9-5.92-1.94,5.92Z" transform="translate(-6.11 -7.06)"/><path class="f227736a-f6ba-496b-b08d-9ec45b2f3dc2" d="M213.51,127.33v-14H208v-11h22.2v11h-5.44v14Z" transform="translate(-6.11 -7.06)"/><path class="f227736a-f6ba-496b-b08d-9ec45b2f3dc2" d="M234.08,102.31h11.29v25H234.08Z" transform="translate(-6.11 -7.06)"/><path class="f227736a-f6ba-496b-b08d-9ec45b2f3dc2" d="M252.51,105.68a13.34,13.34,0,0,1,18.6,0,12.77,12.77,0,0,1,0,18.26,13.25,13.25,0,0,1-18.6,0,12.6,12.6,0,0,1-3.88-9.11A12.82,12.82,0,0,1,252.51,105.68Zm9.28,11.66a2.52,2.52,0,1,0-2.52-2.52A2.49,2.49,0,0,0,261.79,117.34Z" transform="translate(-6.11 -7.06)"/><path class="f227736a-f6ba-496b-b08d-9ec45b2f3dc2" d="M277.87,127.33v-25H286l5.92,8.09v-8.09h10.88v25h-8.64L289.05,120v7.34Z" transform="translate(-6.11 -7.06)"/></g></g></svg>