<svg id="e3aa32b6-ae64-4ec2-b498-0e3f10210e4b" data-name="Calque 1" xmlns="http://www.w3.org/2000/svg" viewBox="0 0 512.09 512.08"><defs><style>.\35 151903e-93a9-4db2-a162-24e3e4bcc01c{fill:#7fbde4;}</style></defs><title>aperture_science</title><path class="5151903e-93a9-4db2-a162-24e3e4bcc01c" d="M320.62,16a254.65,254.65,0,0,0-139.41,8.43L386.86,166.76l-23-137.17A258,258,0,0,0,320.62,16Zm61,21.68,41.57,244.1L503,169.59A256,256,0,0,0,381.61,37.72ZM164.62,31A256.29,256.29,0,0,0,33.57,158.18L282.13,112ZM508.53,184.6l-140.77,204,135.08-25.8a257.26,257.26,0,0,0,13-41.82l1.16-5.59A255.17,255.17,0,0,0,508.53,184.6ZM165.22,149.9,26.79,174.23a258.06,258.06,0,0,0-11.09,37,254.66,254.66,0,0,0,8.8,140.38ZM107.78,257.13,31.56,369.38A256.36,256.36,0,0,0,154.73,496.8ZM496,378,253.82,425,365.2,502A256.38,256.38,0,0,0,496,378Zm-349.27-7.25,23.44,132.87A256.19,256.19,0,0,0,349.58,508Z" transform="translate(-9.72 -10.05)"/></svg>