<svg id="562e370b-f218-459c-ba72-412787d5671c" data-name="Color" xmlns="http://www.w3.org/2000/svg" viewBox="0 0 302 122.87"><defs><style>.\35 33d61c4-4646-40ed-9841-715e71780e1d{fill:#fff;}.\32 3ed9a9a-085a-498b-b995-0beeb5323148,.\38 1c13511-4af9-481c-afcd-cd5d5c9abcfd{fill:#ed2024;}.\32 3ed9a9a-085a-498b-b995-0beeb5323148,.f8931a13-878e-47a5-b1c2-b48875712388{stroke:#000;stroke-miterlimit:10;stroke-width:4px;}.f8931a13-878e-47a5-b1c2-b48875712388{fill:none;}</style></defs><title>acme</title><g id="287882f9-267f-4a9f-8b06-6ee7a619646a" data-name="Shadow"><path id="9aeb3a14-8880-43f9-804b-1c916ade02ba" data-name="E" class="533d61c4-4646-40ed-9841-715e71780e1d" d="M305.17,37.67,305.5,25l-48-2.33-4,65.67,48.67,3,.33-12.67-24.67-1.33L278.17,63l17.67.33.67-11.67L279.17,51l.67-14.67Z" transform="translate(-3.5 -4.87)"/><path id="1a2932c1-7d32-4ff6-9e62-545e86a410ce" data-name="M" class="533d61c4-4646-40ed-9841-715e71780e1d" d="M159.83,75.39l22.67,2.33,4.67-40.67,11.67,18.67,15-15.33L209.5,80.06l22.33,2.67,8.33-64.67L216.5,15.39l-14.67,15-11.33-18-23.33-2.33Z" transform="translate(-3.5 -4.87)"/><path id="c4283d9f-81a7-40d9-89fb-5f9e2032c02e" data-name="C" class="533d61c4-4646-40ed-9841-715e71780e1d" d="M150.78,84,140.45,62.37s-21.33,6.67-22.33-7c1-12,22.33-6.67,22.33-6.67s9.67-21.67,9-22c-19-8.33-53.88-7.61-55,29.33C96.78,97.7,136.11,93.7,150.78,84Z" transform="translate(-3.5 -4.87)"/><g id="8e073cb8-61db-4470-b66d-9d578f2cd169" data-name="A"><path class="533d61c4-4646-40ed-9841-715e71780e1d" d="M68.11,15.56l-37,1-18,66.67H35.44l3.33-13,25.33-1,4,12,22.33-.67Zm-26,43,7.67-28.67,10,28Z" transform="translate(-3.5 -4.87)"/></g></g><g id="4cf64898-aaa8-4971-ae23-308a57b6a293" data-name="ACME"><path id="b860b63f-632a-4a49-a766-08ff03071d41" data-name="E" class="23ed9a9a-085a-498b-b995-0beeb5323148" d="M298.17,34.67,298.5,22l-48-2.33-4,65.67,48.67,3,.33-12.67-24.67-1.33L271.17,60l17.67.33.67-11.67L272.17,48l.67-14.67Z" transform="translate(-3.5 -4.87)"/><path id="e7cd616f-9495-4f2b-8960-1665ad54f983" data-name="M" class="23ed9a9a-085a-498b-b995-0beeb5323148" d="M152.83,72.39l22.67,2.33,4.67-40.67,11.67,18.67,15-15.33L202.5,77.06l22.33,2.67,8.33-64.67L209.5,12.39l-14.67,15-11.33-18L160.17,7.06Z" transform="translate(-3.5 -4.87)"/><path id="3a24ef35-d629-4f83-b719-00ba3c814e0d" data-name="C" class="23ed9a9a-085a-498b-b995-0beeb5323148" d="M143.78,81,133.45,59.37s-21.33,6.67-22.33-7c1-12,22.33-6.67,22.33-6.67s9.67-21.67,9-22c-19-8.33-53.88-7.61-55,29.33C89.78,94.7,129.11,90.7,143.78,81Z" transform="translate(-3.5 -4.87)"/><g id="72edfd1b-032a-4687-a8ad-72c3a3e21756" data-name="A"><path class="81c13511-4af9-481c-afcd-cd5d5c9abcfd" d="M61.11,12.56l-37,1-18,66.67H28.44l3.33-13,25.33-1,4,12,22.33-.67Zm-26,43,7.67-28.67,10,28Z" transform="translate(-3.5 -4.87)"/><path class="f8931a13-878e-47a5-b1c2-b48875712388" d="M61.11,12.56l-37,1-18,66.67H28.44l3.33-13,25.33-1,4,12,22.33-.67Zm-26,43,7.67-28.67,10,28Z" transform="translate(-3.5 -4.87)"/></g></g><g id="018c2178-4956-493a-b27c-c61911304760" data-name="Corp"><path d="M20.83,127.74a13.78,13.78,0,0,1-8-2.14,13,13,0,0,1,7.79-23.7,23.4,23.4,0,0,1,11.25,3l-4.52,8.7a12.82,12.82,0,0,0-4.49-.88c-2.28,0-3.5.75-3.5,1.87s1.22,1.9,3.5,1.9a13.21,13.21,0,0,0,4.49-.92l4.52,9.38A22.29,22.29,0,0,1,20.83,127.74Z" transform="translate(-3.5 -4.87)"/><path d="M36.81,105.68a13.34,13.34,0,0,1,18.6,0,12.77,12.77,0,0,1,0,18.26,13.26,13.26,0,0,1-18.6,0,12.61,12.61,0,0,1-3.88-9.11A12.82,12.82,0,0,1,36.81,105.68Zm9.28,11.66a2.52,2.52,0,1,0-2.52-2.52A2.49,2.49,0,0,0,46.09,117.34Z" transform="translate(-3.5 -4.87)"/><path d="M62.18,127.33v-25H77.92c3.47,0,5.92.31,7.89,2.21A7,7,0,0,1,85,115.2a22.42,22.42,0,0,1,4.49,12.14H77.81c0-6.05-1.5-9.32-4.45-9.66v9.66Zm11.19-15.47h.34c2.07,0,3.13-.85,3.13-2.38s-1.09-2.31-3.13-2.31h-.34Z" transform="translate(-3.5 -4.87)"/><path d="M92.57,127.33v-25h13.7c3.54,0,6.22.24,8.46,2a7.66,7.66,0,0,1,3,6.29,8.16,8.16,0,0,1-8.46,8.53,8.3,8.3,0,0,1-5.51-2v10.2Zm11.19-14.52h.37c2.24,0,3.4-.92,3.4-2.58s-1.16-2.52-3.33-2.52h-.44Z" transform="translate(-3.5 -4.87)"/><path d="M123.27,105.68a13.34,13.34,0,0,1,18.6,0,12.77,12.77,0,0,1,0,18.26,13.26,13.26,0,0,1-18.6,0,12.61,12.61,0,0,1-3.88-9.11A12.82,12.82,0,0,1,123.27,105.68Zm9.28,11.66a2.52,2.52,0,1,0-2.52-2.52A2.49,2.49,0,0,0,132.55,117.34Z" transform="translate(-3.5 -4.87)"/><path d="M148.64,127.33v-25h15.74c3.47,0,5.92.31,7.89,2.21a6.93,6.93,0,0,1,2.07,5,6.86,6.86,0,0,1-2.92,5.64,22.42,22.42,0,0,1,4.49,12.14H164.28c0-6.05-1.5-9.32-4.45-9.66v9.66Zm11.18-15.47h.34c2.07,0,3.13-.85,3.13-2.38s-1.09-2.31-3.13-2.31h-.34Z" transform="translate(-3.5 -4.87)"/><path d="M184.77,102.31h15.06l9.25,25H197.69L196.3,123h-7.92L187,127.33H175.77Zm9.52,14.86-1.9-5.92-1.94,5.92Z" transform="translate(-3.5 -4.87)"/><path d="M213.51,127.33v-14H208v-11h22.2v11h-5.44v14Z" transform="translate(-3.5 -4.87)"/><path d="M234.08,102.31h11.29v25H234.08Z" transform="translate(-3.5 -4.87)"/><path d="M252.51,105.68a13.34,13.34,0,0,1,18.6,0,12.77,12.77,0,0,1,0,18.26,13.26,13.26,0,0,1-18.6,0,12.6,12.6,0,0,1-3.88-9.11A12.82,12.82,0,0,1,252.51,105.68Zm9.28,11.66a2.52,2.52,0,1,0-2.52-2.52A2.49,2.49,0,0,0,261.79,117.34Z" transform="translate(-3.5 -4.87)"/><path d="M277.87,127.33v-25H286l5.92,8.09v-8.09h10.88v25h-8.64L289.06,120v7.34Z" transform="translate(-3.5 -4.87)"/></g></svg>